<svg id="visual" viewBox="0 0 900 600" width="900" height="600" xmlns="http://www.w3.org/2000/svg" xmlns:xlink="http://www.w3.org/1999/xlink" version="1.1"><rect x="0" y="0" width="900" height="600" fill="#f7f7f7"></rect><defs><linearGradient id="grad1_0" x1="33.3%" y1="0%" x2="100%" y2="100%"><stop offset="20%" stop-color="#377bce" stop-opacity="1"></stop><stop offset="80%" stop-color="#377bce" stop-opacity="1"></stop></linearGradient></defs><defs><linearGradient id="grad1_1" x1="33.3%" y1="0%" x2="100%" y2="100%"><stop offset="20%" stop-color="#377bce" stop-opacity="1"></stop><stop offset="80%" stop-color="#f7f7f7" stop-opacity="1"></stop></linearGradient></defs><defs><linearGradient id="grad2_0" x1="0%" y1="0%" x2="66.7%" y2="100%"><stop offset="20%" stop-color="#377bce" stop-opacity="1"></stop><stop offset="80%" stop-color="#377bce" stop-opacity="1"></stop></linearGradient></defs><defs><linearGradient id="grad2_1" x1="0%" y1="0%" x2="66.7%" y2="100%"><stop offset="20%" stop-color="#f7f7f7" stop-opacity="1"></stop><stop offset="80%" stop-color="#377bce" stop-opacity="1"></stop></linearGradient></defs><g transform="translate(900, 0)"><path d="M0 540.8C-69.9 532.6 -139.8 524.4 -207 499.7C-274.2 474.9 -338.7 433.5 -378.3 378.3C-417.9 323.1 -432.5 254 -455.5 188.7C-478.4 123.3 -509.6 61.7 -540.8 0L0 0Z" fill="#a3b7e3"></path><path d="M0 270.4C-34.9 266.3 -69.9 262.2 -103.5 249.8C-137.1 237.4 -169.4 216.8 -189.2 189.2C-208.9 161.5 -216.3 127 -227.7 94.3C-239.2 61.7 -254.8 30.8 -270.4 0L0 0Z" fill="#377bce"></path></g><g transform="translate(0, 600)"><path d="M0 -540.8C74.2 -527.4 148.5 -514 195.6 -472.1C242.6 -430.2 262.6 -359.8 316.1 -316.1C369.6 -272.3 456.6 -255.2 499.7 -207C542.7 -158.7 541.8 -79.4 540.8 0L0 0Z" fill="#a3b7e3"></path><path d="M0 -270.4C37.1 -263.7 74.2 -257 97.8 -236.1C121.3 -215.1 131.3 -179.9 158 -158C184.8 -136.2 228.3 -127.6 249.8 -103.5C271.4 -79.4 270.9 -39.7 270.4 0L0 0Z" fill="#377bce"></path></g></svg>